<svg width="170" height="170" viewBox="0 0 170 170" fill="none" xmlns="http://www.w3.org/2000/svg">
<rect width="170" height="170" rx="85" fill="#84240C"/>
<path d="M111.7 52.9192C111.7 55.0593 98.8505 63.069 90.0013 66.1505L84.0391 66.2283C84.0391 66.2283 88.7057 49.6243 98.4775 42.53C100.105 41.9242 110.96 49.2346 111.7 52.9192Z" fill="#84240C" stroke="black" stroke-width="3" stroke-linecap="round" stroke-linejoin="round"/>
<path d="M84.0391 66.2284C84.0391 66.2284 108.123 49.4698 108.5 53C108.558 53.5465 107 54.5 105 55.5" stroke="black" stroke-linecap="round" stroke-linejoin="round"/>
<path d="M83.7478 65.9092C83.7478 65.9092 78.3192 50.105 67.2121 40.1406C64.6228 39.4874 55.2257 51.6715 55.8867 55.6656C56.5395 57.321 72.0831 64.9139 83.7478 65.9072V65.9092Z" fill="#84240C" stroke="black" stroke-width="3" stroke-linecap="round" stroke-linejoin="round"/>
<path d="M83.7483 65.9091C72.5619 59.6318 53.2098 49.9892 60.5006 56" stroke="black" stroke-linecap="round" stroke-linejoin="round"/>
<path d="M88.9258 65.9091C88.9258 65.9091 112.629 56.6887 114.857 54.8039C117.085 52.9192 113.929 60.4064 111.7 61.272C109.472 62.1376 114.78 62.9932 117.323 62.9015C121.528 62.7479 114.117 65.6558 107.984 65.9091" fill="#84240C"/>
<path d="M88.9258 65.9091C88.9258 65.9091 112.629 56.6887 114.857 54.8039C117.085 52.9192 113.929 60.4064 111.7 61.272C109.472 62.1376 114.78 62.9932 117.323 62.9015C121.528 62.7479 114.117 65.6558 107.984 65.9091H88.9258Z" stroke="black" stroke-width="3" stroke-linecap="round" stroke-linejoin="round"/>
<path d="M80.5009 66.1299C76.7886 65.1606 55.2223 58.0968 53.5596 57.0018C51.1251 55.3963 54.3335 61.2201 57.4565 63.0471C58.2223 63.4958 54.6013 65.1233 52.0656 65.3347C49.8751 65.5162 50.9307 66.1505 53.3096 66.6471" fill="#84240C"/>
<path d="M80.5009 66.1299C76.7886 65.1606 55.2223 58.0968 53.5596 57.0018C51.1251 55.3963 54.3335 61.2201 57.4565 63.0471C58.2223 63.4958 54.6013 65.1233 52.0656 65.3347C49.8751 65.5162 50.9307 66.1505 53.3096 66.6471L80.5009 66.1299Z" stroke="black" stroke-width="3" stroke-linecap="round" stroke-linejoin="round"/>
<path d="M58.9531 58.657C65.0558 61.0397 78.0065 65.87 80.9877 66.13" stroke="black" stroke-linecap="round"/>
<path d="M116.639 122.488L118.537 83.3208H49.7598V87.7525L51.4403 121.734C51.4621 122.193 51.6506 122.606 51.9443 122.915C52.2736 123.262 52.7359 123.479 53.2479 123.485L114.785 124.241C115.771 124.253 116.591 123.477 116.639 122.488Z" fill="#E5CCB3"/>
<path d="M107.072 58.1696C100.645 60.7147 87.4352 66.0324 85.3613 66.2924" stroke="black" stroke-linecap="round"/>
<path d="M119.439 83.3208H48.6495C48.4015 83.3208 48.1952 83.1254 48.1833 82.8761L47.2349 67.2135C47.223 66.9482 47.4313 66.7269 47.6932 66.7229L120.76 65.7376C121.032 65.7336 121.249 65.963 121.233 66.2362L119.903 82.884C119.887 83.1313 119.683 83.3228 119.439 83.3228V83.3208Z" fill="#E5CCB3" stroke="black" stroke-width="4" stroke-linecap="round" stroke-linejoin="round"/>
<path d="M89.842 123.936L92.5404 83.3208H93.582L95.0007 66.0986H93.9511L77.2309 66.3239L76.1654 66.3379L75.9531 83.3208H76.8658L76.1654 123.767L89.842 123.936Z" fill="#84240C" stroke="#84240C" stroke-width="3" stroke-linecap="round" stroke-linejoin="round"/>
<path d="M49.7598 83.3208H118.537L116.639 122.488C116.591 123.477 115.771 124.253 114.785 124.241L53.2479 123.485C52.7359 123.479 52.2736 123.262 51.9443 122.915C51.6506 122.606 51.4621 122.193 51.4403 121.734L49.867 89.921" stroke="black" stroke-width="3" stroke-linecap="round" stroke-linejoin="round"/>
<path d="M119.439 83.3208H48.6495C48.4015 83.3208 48.1952 83.1254 48.1833 82.8761L47.2349 67.2135C47.223 66.9482 47.4313 66.7269 47.6932 66.7229L120.76 65.7376C121.032 65.7336 121.249 65.963 121.233 66.2362L119.903 82.884C119.887 83.1313 119.683 83.3228 119.439 83.3228V83.3208Z" stroke="black" stroke-width="3" stroke-linecap="round" stroke-linejoin="round"/>
<path d="M123.753 97.8087C126.959 101.688 129.203 107.057 128.443 112.448C127.016 122.566 117.721 129.602 107.681 128.164C103.855 127.616 100.471 125.915 97.8301 123.46" fill="black"/>
<path d="M123.753 97.8087C126.959 101.688 129.203 107.057 128.443 112.448C127.016 122.566 117.721 129.602 107.681 128.164C103.855 127.616 100.471 125.915 97.8301 123.46" stroke="black" stroke-width="3" stroke-linecap="round" stroke-linejoin="round"/>
<path d="M109.334 127.7C119.445 127.7 127.642 119.409 127.642 109.181C127.642 98.9523 119.445 90.6606 109.334 90.6606C99.2222 90.6606 91.0254 98.9523 91.0254 109.181C91.0254 119.409 99.2222 127.7 109.334 127.7Z" fill="#6A4C36" stroke="black" stroke-width="3" stroke-linecap="round" stroke-linejoin="round"/>
<path d="M115.685 110.952C115.427 110.351 115.048 109.843 114.55 109.424C114.053 109.005 113.495 108.651 112.878 108.356C112.323 108.09 111.76 107.852 111.19 107.642L111.639 104.53C111.96 104.624 112.281 104.736 112.604 104.871C113.33 105.173 114.048 105.592 114.757 106.123L116.624 102.995C115.906 102.416 115.052 101.936 114.062 101.558C113.439 101.321 112.804 101.128 112.153 100.982L112.509 98.5225L109.735 98.1335L109.374 100.636C108.458 100.618 107.633 100.712 106.905 100.918C105.775 101.238 104.892 101.751 104.254 102.451C103.62 103.151 103.234 103.97 103.097 104.91C102.973 105.759 103.038 106.487 103.287 107.095C103.538 107.704 103.908 108.218 104.396 108.642C104.885 109.065 105.445 109.431 106.077 109.735C106.705 110.04 107.328 110.298 107.944 110.515L107.507 113.545C106.905 113.391 106.312 113.178 105.726 112.899C104.822 112.472 104.041 111.98 103.38 111.424L101.395 114.556C102.078 115.162 103.008 115.713 104.185 116.21C105.075 116.585 106.012 116.873 106.996 117.072L106.642 119.514L109.416 119.902L109.781 117.374C110.625 117.377 111.386 117.285 112.062 117.093C113.192 116.773 114.081 116.258 114.725 115.551C115.369 114.844 115.757 114.03 115.892 113.103C116.013 112.27 115.943 111.552 115.685 110.95V110.952Z" fill="#E5CCB3" stroke="#E5CCB3" stroke-linecap="round" stroke-linejoin="round"/>
<path d="M110.305 113.748C110.574 113.686 110.791 113.59 110.949 113.458C111.153 113.286 111.277 113.062 111.316 112.79C111.367 112.442 111.237 112.14 110.928 111.888C110.832 111.81 110.723 111.735 110.607 111.659L110.305 113.748Z" fill="#6A4C36"/>
<path d="M107.634 105.313C107.583 105.677 107.711 105.985 108.02 106.237C108.162 106.354 108.327 106.464 108.513 106.569L108.845 104.272C108.466 104.354 108.178 104.485 107.987 104.665C107.787 104.855 107.669 105.07 107.634 105.313Z" fill="#6A4C36"/>
</svg>
