<svg width="170" height="170" viewBox="0 0 170 170" fill="none" xmlns="http://www.w3.org/2000/svg">
<rect width="170" height="170" rx="85" fill="#84240C"/>
<path d="M73.6087 57.1455C77.2466 56.196 81.0678 55.6938 84.999 55.6938C91.1564 55.6938 97.0246 56.929 102.367 59.1642C105.911 60.6466 109.223 62.5689 112.236 64.8625C115.443 67.3045 118.311 70.1674 120.755 73.3684C126.494 80.8829 129.9 90.2608 129.9 100.431H40.0977C40.0977 82.7003 50.4433 67.3802 65.4532 60.1401" fill="#E5CCB3"/>
<path d="M73.6087 57.1455C77.2466 56.196 81.0678 55.6938 84.999 55.6938C91.1564 55.6938 97.0246 56.929 102.367 59.1642C105.911 60.6466 109.223 62.5689 112.236 64.8625C115.443 67.3045 118.311 70.1674 120.755 73.3684C126.494 80.8829 129.9 90.2608 129.9 100.431H40.0977C40.0977 82.7003 50.4433 67.3802 65.4532 60.1401" fill="#E5CCB3"/>
<path d="M73.6087 57.1455C77.2466 56.196 81.0678 55.6938 84.999 55.6938C91.1564 55.6938 97.0246 56.929 102.367 59.1642M65.4532 60.1401C50.4433 67.3802 40.0977 82.7003 40.0977 100.431H129.9C129.9 90.2608 126.494 80.8829 120.755 73.3684" stroke="black" stroke-width="3" stroke-linecap="round" stroke-linejoin="round"/>
<path d="M135.398 104.872H34.5996V110.35H135.398V104.872Z" fill="#6A4C36" stroke="black" stroke-width="3" stroke-linecap="round" stroke-linejoin="round"/>
<path d="M85.0005 55.2841C87.2779 55.2841 89.1241 53.4447 89.1241 51.1756C89.1241 48.9066 87.2779 47.0671 85.0005 47.0671C82.7231 47.0671 80.877 48.9066 80.877 51.1756C80.877 53.4447 82.7231 55.2841 85.0005 55.2841Z" fill="#E5CCB3" stroke="black" stroke-width="3" stroke-linecap="round" stroke-linejoin="round"/>
<path d="M81.4464 63.1052C72.3675 64.6842 58.9464 71.3947 53.0254 83.6315" stroke="#84240C" stroke-width="6" stroke-linecap="round"/>
<path d="M112.234 52.0527C112.234 52.0527 114.061 58.6442 116.759 61.3413C119.456 64.0384 122.889 65.8654 122.889 65.8654C122.889 65.8654 119.456 67.6925 116.759 70.3896C114.061 73.0867 112.234 79.6781 112.234 79.6781C112.234 79.6781 110.407 73.0867 107.71 70.3896C105.013 67.6925 101.58 65.8654 101.58 65.8654C101.58 65.8654 105.013 64.0384 107.71 61.3413C110.407 58.6442 112.234 52.0527 112.234 52.0527Z" fill="#84240C" stroke="black" stroke-width="3" stroke-linejoin="round"/>
</svg>
