<svg width="170" height="170" viewBox="0 0 170 170" fill="none" xmlns="http://www.w3.org/2000/svg">
<rect width="170" height="170" rx="85" fill="#84240C"/>
<path d="M94.2416 117.711H75.7589C74.8792 117.711 74.166 118.836 74.166 120.224V121.763C74.166 123.151 74.8792 124.276 75.7589 124.276H94.2416C95.1214 124.276 95.8345 123.151 95.8345 121.763V120.224C95.8345 118.836 95.1214 117.711 94.2416 117.711Z" fill="#6A4C36" stroke="black" stroke-width="4" stroke-linecap="round" stroke-linejoin="round"/>
<path d="M47.2207 59.793L122.684 57.2297" stroke="black" stroke-width="5" stroke-miterlimit="10"/>
<path d="M47.2383 64.8682L122.748 64.6952" stroke="black" stroke-width="5" stroke-miterlimit="10"/>
<path d="M54.0388 56.1217C54.0388 55.3399 53.41 54.6976 52.6239 54.6976C51.8378 54.6976 51.209 55.3399 51.209 56.1217V90.9386C51.209 91.7204 51.8378 92.3627 52.6239 92.3627C53.41 92.3627 54.0388 91.7204 54.0388 90.9386V56.1217Z" fill="#E5CCB3" stroke="#84240C" stroke-linecap="round" stroke-linejoin="round"/>
<path d="M57.4196 56.1217C57.4196 55.3399 56.7908 54.6976 56.0047 54.6976C55.2186 54.6976 54.5898 55.3399 54.5898 56.1217V90.9386C54.5898 91.7204 55.2186 92.3627 56.0047 92.3627C56.7908 92.3627 57.4196 91.7204 57.4196 90.9386V56.1217Z" fill="#E5CCB3" stroke="#84240C" stroke-linecap="round" stroke-linejoin="round"/>
<path d="M60.7985 56.1217C60.7985 55.3399 60.1698 54.6976 59.3836 54.6976C58.5975 54.6976 57.9688 55.3399 57.9688 56.1217V90.9386C57.9688 91.7204 58.5975 92.3627 59.3836 92.3627C60.1698 92.3627 60.7985 91.7204 60.7985 90.9386V56.1217Z" fill="#E5CCB3" stroke="#84240C" stroke-linecap="round" stroke-linejoin="round"/>
<path d="M64.1774 56.1217C64.1774 55.3399 63.5487 54.6976 62.7625 54.6976C61.9764 54.6976 61.3477 55.3399 61.3477 56.1217V90.9386C61.3477 91.7204 61.9764 92.3627 62.7625 92.3627C63.5487 92.3627 64.1774 91.7204 64.1774 90.9386V56.1217Z" fill="#E5CCB3" stroke="#84240C" stroke-linecap="round" stroke-linejoin="round"/>
<path d="M67.5583 56.1217C67.5583 55.3399 66.9295 54.6976 66.1434 54.6976C65.3573 54.6976 64.7285 55.3399 64.7285 56.1217V90.9386C64.7285 91.7204 65.3573 92.3627 66.1434 92.3627C66.9295 92.3627 67.5583 91.7204 67.5583 90.9386V56.1217Z" fill="#E5CCB3" stroke="#84240C" stroke-linecap="round" stroke-linejoin="round"/>
<path d="M70.9372 56.1217C70.9372 55.3399 70.3084 54.6976 69.5223 54.6976C68.7362 54.6976 68.1074 55.3399 68.1074 56.1217V90.9386C68.1074 91.7204 68.7362 92.3627 69.5223 92.3627C70.3084 92.3627 70.9372 91.7204 70.9372 90.9386V56.1217Z" fill="#E5CCB3" stroke="#84240C" stroke-linecap="round" stroke-linejoin="round"/>
<path d="M43.8301 94.9014H126.171C126.171 116.382 97.5286 118.975 85.0017 118.975C73.4188 118.975 48.0594 116.757 44.3021 99.4457" fill="#6A4C36"/>
<path d="M43.8301 94.9014H126.171C126.171 116.382 97.5286 118.975 85.0017 118.975C74.0273 118.975 50.6855 116.984 45.0679 102.051" stroke="black" stroke-width="4" stroke-linecap="round" stroke-linejoin="round"/>
</svg>
