<svg width="170" height="170" viewBox="0 0 170 170" fill="none" xmlns="http://www.w3.org/2000/svg">
<rect width="170" height="170" rx="85" fill="#84240C"/>
<path d="M44 72H124V119H49C46.2386 119 44 116.761 44 114V72Z" fill="#E5CCB3"/>
<path d="M84.5049 119.309H48.2539C46.1516 119.309 44.4473 117.608 44.4473 115.509V77.6542" stroke="black" stroke-width="3" stroke-linecap="round" stroke-linejoin="round"/>
<path d="M123.885 57.3946V70.7914H44.4473V57.3946C44.4473 55.2956 46.1516 53.5959 48.2539 53.5959H120.08C122.181 53.5959 123.885 55.2956 123.885 57.3946Z" fill="#84240C"/>
<path d="M123.885 70.7914V57.3946C123.885 55.2956 122.181 53.5959 120.08 53.5959H48.2539C46.1516 53.5959 44.4473 55.2956 44.4473 57.3946V70.7914H123.885ZM123.885 70.7914V84.703" stroke="black" stroke-width="3" stroke-miterlimit="10" stroke-linecap="round"/>
<path d="M64.5411 77.8948H52.5635C52.1649 77.8948 51.8418 78.2179 51.8418 78.6165V90.5941C51.8418 90.9927 52.1649 91.3158 52.5635 91.3158H64.5411C64.9397 91.3158 65.2628 90.9927 65.2628 90.5941V78.6165C65.2628 78.2179 64.9397 77.8948 64.5411 77.8948Z" fill="#84240C" stroke="#84240C" stroke-width="4" stroke-linecap="round" stroke-linejoin="round"/>
<path d="M89.8048 77.8948H77.8272C77.4286 77.8948 77.1055 78.2179 77.1055 78.6165V90.5941C77.1055 90.9927 77.4286 91.3158 77.8272 91.3158H89.8048C90.2034 91.3158 90.5265 90.9927 90.5265 90.5941V78.6165C90.5265 78.2179 90.2034 77.8948 89.8048 77.8948Z" fill="#84240C" stroke="#84240C" stroke-width="4" stroke-linecap="round" stroke-linejoin="round"/>
<path d="M115.858 77.8948H103.88C103.481 77.8948 103.158 78.2179 103.158 78.6165V90.5941C103.158 90.9927 103.481 91.3158 103.88 91.3158H115.858C116.256 91.3158 116.579 90.9927 116.579 90.5941V78.6165C116.579 78.2179 116.256 77.8948 115.858 77.8948Z" fill="#84240C" stroke="#84240C" stroke-width="4" stroke-linecap="round" stroke-linejoin="round"/>
<path d="M64.5411 98.4211H52.5635C52.1649 98.4211 51.8418 98.7442 51.8418 99.1428V111.12C51.8418 111.519 52.1649 111.842 52.5635 111.842H64.5411C64.9397 111.842 65.2628 111.519 65.2628 111.12V99.1428C65.2628 98.7442 64.9397 98.4211 64.5411 98.4211Z" fill="#84240C" stroke="#84240C" stroke-width="4" stroke-linecap="round" stroke-linejoin="round"/>
<path d="M89.8048 98.4211H77.8272C77.4286 98.4211 77.1055 98.7442 77.1055 99.1428V111.12C77.1055 111.519 77.4286 111.842 77.8272 111.842H89.8048C90.2034 111.842 90.5265 111.519 90.5265 111.12V99.1428C90.5265 98.7442 90.2034 98.4211 89.8048 98.4211Z" fill="#84240C" stroke="#84240C" stroke-width="4" stroke-linecap="round" stroke-linejoin="round"/>
<path d="M60.3201 52.9938V57.848H55.207V52.9938H55.81V48.6774C55.81 48.2439 56.1617 47.8948 56.5938 47.8948H58.9313C59.3654 47.8948 59.7151 48.2459 59.7151 48.6774V52.9938H60.3181H60.3201Z" fill="black"/>
<path d="M59.7166 51.5V57.2461H55.8094V51.5H54.6035L54.6035 57.8481C54.6035 58.1792 54.8748 58.4501 55.2065 58.4501H60.3196C60.6532 58.4501 60.9225 58.1792 60.9225 57.8481V51.5H59.7166Z" fill="#84240C"/>
<path d="M113.123 52.9938V57.848H108.012V52.9938H108.615V48.6774C108.615 48.2439 108.966 47.8948 109.399 47.8948H111.734C112.168 47.8948 112.518 48.2459 112.518 48.6774V52.9938H113.121H113.123Z" fill="black"/>
<path d="M112.519 51.5V57.2461H108.614L108.614 51.5H107.408V57.8481C107.408 58.1792 107.678 58.4501 108.011 58.4501H113.122C113.456 58.4501 113.725 58.1792 113.725 57.8481V51.5H112.519Z" fill="#84240C"/>
<path d="M95.5252 52.9938V57.848H90.4121V52.9938H91.0151V48.6774C91.0151 48.2439 91.3668 47.8948 91.7989 47.8948H94.1364C94.5705 47.8948 94.9202 48.2459 94.9202 48.6774V52.9938H95.5232H95.5252Z" fill="black"/>
<path d="M94.9197 51.5L94.9206 56.8063H91.0135L91.0126 51.5H89.8066L89.8076 57.4083C89.8076 57.7394 90.0789 58.0103 90.4105 58.0103H95.5236C95.8572 58.0103 96.1266 57.7394 96.1266 57.4083L96.1256 51.5H94.9197Z" fill="#84240C"/>
<path d="M77.9216 52.9938V57.848H72.8105V52.9938H73.4135V48.6774C73.4135 48.2439 73.7652 47.8948 74.1974 47.8948H76.5328C76.9669 47.8948 77.3167 48.2459 77.3167 48.6774V52.9938H77.9196H77.9216Z" fill="black"/>
<path d="M77.3181 51.5V57.246H73.4129V51.5H72.207V57.848C72.207 58.1792 72.4764 58.4501 72.81 58.4501H77.9211C78.2547 58.4501 78.524 58.1792 78.524 57.848V51.5H77.3181Z" fill="#84240C"/>
<path d="M131.248 95.3894C134.114 98.8566 136.12 103.657 135.44 108.475C134.164 117.519 125.856 123.808 116.881 122.523C113.462 122.033 110.437 120.513 108.076 118.319" fill="black"/>
<path d="M131.248 95.3894C134.114 98.8566 136.12 103.657 135.44 108.475C134.164 117.519 125.856 123.808 116.881 122.523C113.462 122.033 110.437 120.513 108.076 118.319" stroke="black" stroke-width="3" stroke-linecap="round" stroke-linejoin="round"/>
<path d="M118.359 122.109C127.397 122.109 134.724 114.697 134.724 105.554C134.724 96.4116 127.397 89 118.359 89C109.321 89 101.994 96.4116 101.994 105.554C101.994 114.697 109.321 122.109 118.359 122.109Z" fill="#6A4C36" stroke="black" stroke-width="3" stroke-linecap="round" stroke-linejoin="round"/>
<path d="M124.037 107.138C123.807 106.6 123.468 106.146 123.023 105.772C122.578 105.398 122.08 105.081 121.529 104.817C121.032 104.58 120.529 104.367 120.02 104.179L120.421 101.398C120.708 101.482 120.995 101.582 121.284 101.702C121.932 101.972 122.574 102.347 123.208 102.821L124.877 100.026C124.235 99.5081 123.472 99.0787 122.587 98.7412C122.03 98.5286 121.462 98.3568 120.88 98.2259L121.198 96.0275L118.719 95.6798L118.397 97.9171C117.578 97.9007 116.84 97.9846 116.189 98.1686C115.179 98.4549 114.39 98.913 113.82 99.5388C113.253 100.165 112.908 100.897 112.785 101.737C112.675 102.496 112.733 103.146 112.955 103.69C113.18 104.234 113.51 104.694 113.947 105.073C114.383 105.451 114.884 105.778 115.45 106.05C116.011 106.322 116.568 106.553 117.118 106.748L116.728 109.455C116.189 109.318 115.659 109.128 115.136 108.879C114.327 108.496 113.629 108.056 113.039 107.559L111.264 110.359C111.875 110.901 112.706 111.394 113.758 111.838C114.554 112.173 115.391 112.431 116.271 112.609L115.955 114.791L118.434 115.138L118.76 112.879C119.515 112.881 120.194 112.799 120.799 112.627C121.809 112.341 122.603 111.881 123.179 111.249C123.755 110.617 124.102 109.889 124.222 109.061C124.33 108.316 124.268 107.674 124.037 107.136V107.138Z" fill="#E5CCB3" stroke="#E5CCB3" stroke-linecap="round" stroke-linejoin="round"/>
<path d="M119.227 109.637C119.468 109.582 119.661 109.496 119.802 109.378C119.985 109.224 120.095 109.024 120.131 108.78C120.176 108.47 120.06 108.2 119.784 107.975C119.698 107.905 119.601 107.838 119.497 107.77L119.227 109.637Z" fill="#6A4C36"/>
<path d="M116.84 102.097C116.794 102.422 116.908 102.698 117.185 102.923C117.312 103.028 117.459 103.126 117.625 103.22L117.923 101.167C117.584 101.24 117.326 101.357 117.156 101.518C116.977 101.688 116.871 101.88 116.84 102.097Z" fill="#6A4C36"/>
<path d="M114.254 95.3894C117.12 98.8566 119.125 103.657 118.446 108.475C117.17 117.519 108.862 123.808 99.8873 122.523C96.4674 122.033 93.443 120.513 91.082 118.319" fill="black"/>
<path d="M114.254 95.3894C117.12 98.8566 119.125 103.657 118.446 108.475C117.17 117.519 108.862 123.808 99.8873 122.523C96.4674 122.033 93.443 120.513 91.082 118.319" stroke="black" stroke-width="3" stroke-linecap="round" stroke-linejoin="round"/>
<path d="M101.365 122.109C110.403 122.109 117.73 114.697 117.73 105.554C117.73 96.4116 110.403 89 101.365 89C92.3269 89 85 96.4116 85 105.554C85 114.697 92.3269 122.109 101.365 122.109Z" fill="#6A4C36" stroke="black" stroke-width="3" stroke-linecap="round" stroke-linejoin="round"/>
<path d="M107.043 107.138C106.813 106.6 106.474 106.146 106.029 105.772C105.584 105.398 105.085 105.081 104.535 104.817C104.038 104.58 103.535 104.367 103.026 104.179L103.427 101.398C103.714 101.482 104.001 101.582 104.289 101.702C104.938 101.972 105.58 102.347 106.214 102.821L107.883 100.026C107.241 99.5081 106.478 99.0787 105.593 98.7412C105.036 98.5286 104.468 98.3568 103.886 98.2259L104.204 96.0275L101.725 95.6798L101.403 97.9171C100.584 97.9007 99.8458 97.9846 99.1953 98.1686C98.1852 98.4549 97.3954 98.913 96.8259 99.5388C96.2585 100.165 95.9135 100.897 95.7909 101.737C95.6808 102.496 95.7389 103.146 95.9613 103.69C96.1858 104.234 96.5163 104.694 96.9527 105.073C97.3892 105.451 97.8901 105.778 98.4554 106.05C99.0166 106.322 99.5736 106.553 100.124 106.748L99.7336 109.455C99.1953 109.318 98.6653 109.128 98.1416 108.879C97.3331 108.496 96.6347 108.056 96.0445 107.559L94.2695 110.359C94.8806 110.901 95.7119 111.394 96.7636 111.838C97.5596 112.173 98.3972 112.431 99.2764 112.609L98.9604 114.791L101.44 115.138L101.766 112.879C102.521 112.881 103.2 112.799 103.805 112.627C104.815 112.341 105.609 111.881 106.185 111.249C106.761 110.617 107.108 109.889 107.228 109.061C107.336 108.316 107.274 107.674 107.043 107.136V107.138Z" fill="#E5CCB3" stroke="#E5CCB3" stroke-linecap="round" stroke-linejoin="round"/>
<path d="M102.232 109.637C102.474 109.582 102.667 109.496 102.808 109.378C102.991 109.224 103.101 109.024 103.137 108.78C103.182 108.47 103.066 108.2 102.789 107.975C102.704 107.905 102.607 107.838 102.503 107.77L102.232 109.637Z" fill="#6A4C36"/>
<path d="M99.8457 102.097C99.8 102.422 99.9143 102.698 100.191 102.923C100.318 103.028 100.465 103.126 100.631 103.22L100.929 101.167C100.59 101.24 100.332 101.357 100.162 101.518C99.9829 101.688 99.8769 101.88 99.8457 102.097Z" fill="#6A4C36"/>
</svg>
