<svg width="170" height="170" viewBox="0 0 170 170" fill="none" xmlns="http://www.w3.org/2000/svg">
<rect width="170" height="170" rx="85" fill="#84240C"/>
<path d="M68.3608 98.7053L80.8651 52.0385C81.6736 49.0211 84.7655 47.2316 87.7764 48.0383L131.158 59.6623C134.168 60.4691 135.951 63.5648 135.143 66.5822L119.919 123.399C119.11 126.417 116.018 128.206 113.007 127.399L69.6263 115.775C66.6154 114.969 64.8325 111.873 65.641 108.856" fill="#E5CCB3"/>
<path d="M68.3608 98.7053L80.8651 52.0385C81.6736 49.0211 84.7655 47.2316 87.7764 48.0383L131.158 59.6623C134.168 60.4691 135.951 63.5648 135.143 66.5822L119.919 123.399C119.11 126.417 116.018 128.206 113.007 127.399L69.6263 115.775C66.6154 114.969 64.8325 111.873 65.641 108.856" stroke="black" stroke-width="3" stroke-linecap="round" stroke-linejoin="round"/>
<path d="M124.914 67.8893L89.0703 58.285L86.0453 69.5746L121.889 79.1789L124.914 67.8893Z" fill="black" stroke="black" stroke-width="3" stroke-linecap="round" stroke-linejoin="round"/>
<path d="M91.5652 77.6534L84.3965 75.7325L82.4715 82.9168L89.6402 84.8376L91.5652 77.6534Z" fill="#84240C" stroke="#84240C" stroke-width="3" stroke-linecap="round" stroke-linejoin="round"/>
<path d="M120.239 85.3368L113.07 83.4159L111.145 90.6001L118.314 92.521L120.239 85.3368Z" fill="#84240C" stroke="#84240C" stroke-width="3" stroke-linecap="round" stroke-linejoin="round"/>
<path d="M105.901 81.4951L98.7324 79.5742L96.8074 86.7585L103.976 88.6793L105.901 81.4951Z" fill="#84240C" stroke="#84240C" stroke-width="3" stroke-linecap="round" stroke-linejoin="round"/>
<path d="M87.9891 90.9954L80.8203 89.0746L78.8953 96.2588L86.0641 98.1797L87.9891 90.9954Z" fill="#84240C" stroke="#84240C" stroke-width="3" stroke-linecap="round" stroke-linejoin="round"/>
<path d="M102.327 94.8372L95.1582 92.9164L93.2332 100.101L100.402 102.021L102.327 94.8372Z" fill="#84240C" stroke="#84240C" stroke-width="3" stroke-linecap="round" stroke-linejoin="round"/>
<path d="M116.663 98.6789L109.494 96.7581L103.994 117.284L111.163 119.205L116.663 98.6789Z" fill="#6A4C36" stroke="#6A4C36" stroke-width="3" stroke-linecap="round" stroke-linejoin="round"/>
<path d="M84.4148 104.338L77.2461 102.417L75.3211 109.601L82.4898 111.522L84.4148 104.338Z" fill="#84240C" stroke="#84240C" stroke-width="3" stroke-linecap="round" stroke-linejoin="round"/>
<path d="M98.7508 108.179L91.582 106.259L89.657 113.443L96.8258 115.364L98.7508 108.179Z" fill="#84240C" stroke="#84240C" stroke-width="3" stroke-linecap="round" stroke-linejoin="round"/>
<path d="M80.5743 44.4748C83.4731 47.9784 85.5036 52.8274 84.8197 57.6938C83.5368 66.8268 75.1431 73.1726 66.0719 71.8688C62.615 71.3716 59.5572 69.8347 57.1695 67.6168" fill="black"/>
<path d="M80.5743 44.4748C83.4731 47.9784 85.5036 52.8274 84.8197 57.6938C83.5368 66.8268 75.1431 73.1726 66.0719 71.8688C62.615 71.3716 59.5572 69.8347 57.1695 67.6168" stroke="black" stroke-width="3" stroke-linecap="round" stroke-linejoin="round"/>
<path d="M67.5642 71.4534C76.6992 71.4594 84.0996 63.9789 84.0936 54.7452C84.0875 45.5116 76.6773 38.0214 67.5423 38.0155C58.4073 38.0095 51.0069 45.49 51.0129 54.7236C51.019 63.9572 58.4293 71.4474 67.5642 71.4534Z" fill="#6A4C36" stroke="black" stroke-width="3" stroke-linecap="round" stroke-linejoin="round"/>
<path d="M73.2919 56.3377C73.0584 55.7944 72.7157 55.3357 72.2659 54.9575C71.8162 54.5793 71.3119 54.2588 70.7551 53.9921C70.2529 53.7522 69.7445 53.5371 69.2298 53.3467L69.6333 50.5383C69.9232 50.6232 70.2132 50.7245 70.5052 50.8466C71.1607 51.1196 71.81 51.498 72.4509 51.9775L74.1358 49.1555C73.4864 48.6325 72.7152 48.1983 71.8202 47.857C71.2572 47.6419 70.6836 47.468 70.0954 47.3355L70.4153 45.1156L67.9093 44.7628L67.5852 47.022C66.7576 47.0049 66.012 47.0891 65.3547 47.2745C64.3341 47.563 63.5362 48.0251 62.9611 48.6567C62.3881 49.2883 62.0399 50.0274 61.9165 50.8761C61.8057 51.6422 61.8649 52.299 62.09 52.8485C62.3172 53.398 62.6515 53.8629 63.0929 54.2452C63.5342 54.6276 64.0406 54.9584 64.6121 55.2334C65.1794 55.5084 65.7425 55.7422 66.2992 55.9387L65.9061 58.6728C65.362 58.5341 64.8263 58.3417 64.2968 58.0894C63.4795 57.7027 62.7734 57.2582 62.1766 56.7559L60.3847 59.5821C61.0025 60.1297 61.843 60.628 62.9062 61.0769C63.7109 61.4161 64.5575 61.6768 65.4461 61.8571L65.1283 64.0605L67.6343 64.4132L67.9626 62.1313C68.7251 62.1339 69.4119 62.0517 70.023 61.8787C71.0436 61.5902 71.8457 61.126 72.4271 60.4883C73.0085 59.8505 73.3588 59.1155 73.4801 58.2792C73.5888 57.5275 73.5254 56.879 73.2919 56.3357L73.2919 56.3377Z" fill="#E5CCB3" stroke="#E5CCB3" stroke-linecap="round" stroke-linejoin="round"/>
<path d="M68.4328 58.8565C68.6764 58.8009 68.8717 58.7143 69.0144 58.5947C69.1991 58.4399 69.3102 58.2377 69.3458 57.992C69.3918 57.6782 69.274 57.4056 68.9946 57.1783C68.9084 57.108 68.8097 57.0398 68.7046 56.9716L68.4328 58.8565Z" fill="#6A4C36"/>
<path d="M66.0164 51.2432C65.9704 51.5714 66.086 51.8502 66.3655 52.0775C66.4937 52.1829 66.6428 52.2821 66.8109 52.3772L67.1099 50.3044C66.7676 50.3785 66.5073 50.4961 66.3352 50.6591C66.1547 50.8303 66.0477 51.0243 66.0164 51.2432Z" fill="#6A4C36"/>
<path d="M57.5818 55.5956C61.8446 57.1823 66.029 60.3682 67.8719 64.9254C71.3311 73.4777 67.2391 83.1684 58.7328 86.5711C55.491 87.8676 52.0746 88.064 48.8974 87.3357" fill="black"/>
<path d="M57.5818 55.5956C61.8446 57.1823 66.029 60.3682 67.8719 64.9254C71.3311 73.4777 67.2391 83.1684 58.7328 86.5711C55.491 87.8676 52.0746 88.064 48.8974 87.3357" stroke="black" stroke-width="3" stroke-linecap="round" stroke-linejoin="round"/>
<path d="M59.8171 85.4638C67.7292 80.9049 70.3935 70.7275 65.768 62.732C61.1424 54.7364 50.9786 51.9504 43.0664 56.5092C35.1543 61.0681 32.49 71.2455 37.1156 79.2411C41.7411 87.2366 51.9049 90.0226 59.8171 85.4638Z" fill="#6A4C36" stroke="black" stroke-width="3" stroke-linecap="round" stroke-linejoin="round"/>
<path d="M57.2138 69.508C56.7397 69.154 56.2135 68.9279 55.6348 68.8249C55.0561 68.722 54.459 68.6964 53.8434 68.7435C53.2886 68.7866 52.7406 68.8543 52.1997 68.9466L51.1437 66.312C51.4372 66.2406 51.739 66.1836 52.053 66.1434C52.7572 66.0524 53.5087 66.0557 54.3037 66.1509L54.3504 62.8643C53.5264 62.7357 52.6414 62.7449 51.6956 62.8964C51.1004 62.9913 50.5167 63.1273 49.9411 63.3064L49.1072 61.2234L46.7607 62.17L47.6106 64.2891C46.8855 64.6878 46.282 65.1333 45.8056 65.6224C45.0662 66.3823 44.6066 67.1813 44.4247 68.0158C44.2446 68.8492 44.3129 69.6635 44.6308 70.4604C44.9183 71.1795 45.2982 71.7189 45.7681 72.0824C46.2398 72.445 46.7619 72.6807 47.3354 72.7914C47.9089 72.9021 48.5129 72.9356 49.1454 72.8883C49.7743 72.8431 50.3788 72.7643 50.9593 72.6564L51.9871 75.2214C51.4465 75.373 50.8864 75.474 50.3016 75.52C49.4004 75.5934 48.5666 75.5611 47.7985 75.4243L47.6611 78.7679C48.4702 78.9337 49.4473 78.9453 50.5925 78.803C51.459 78.6948 52.3226 78.4976 53.1822 78.2098L54.0097 80.2774L56.3561 79.3308L55.4985 77.1899C56.16 76.8112 56.7136 76.3968 57.1561 75.9415C57.8955 75.1817 58.3577 74.3788 58.542 73.5358C58.7263 72.6928 58.6618 71.881 58.3483 71.0959C58.0663 70.3904 57.6869 69.8602 57.2128 69.5062L57.2138 69.508Z" fill="#E5CCB3" stroke="#E5CCB3" stroke-linecap="round" stroke-linejoin="round"/>
<path d="M54.2668 74.1191C54.4499 73.9492 54.5756 73.7767 54.6393 73.6017C54.7218 73.3753 54.7169 73.1445 54.6247 72.9139C54.5075 72.619 54.269 72.4416 53.9133 72.3844C53.8035 72.3665 53.6839 72.3568 53.5588 72.3502L54.2668 74.1191Z" fill="#6A4C36"/>
<path d="M48.3621 68.7292C48.4866 69.0366 48.7263 69.2204 49.082 69.2777C49.2458 69.305 49.4246 69.3164 49.6177 69.3148L48.8392 67.3695C48.5799 67.6047 48.4133 67.8366 48.3459 68.0638C48.2753 68.3024 48.2797 68.524 48.3621 68.7292Z" fill="#6A4C36"/>
</svg>
