<svg width="170" height="170" viewBox="0 0 170 170" fill="none" xmlns="http://www.w3.org/2000/svg">
<rect width="170" height="170" rx="85" fill="#84240C"/>
<path d="M84.9999 123.074C106.463 123.074 123.863 105.674 123.863 84.2105C123.863 62.747 106.463 45.3474 84.9999 45.3474C63.5363 45.3474 46.1367 62.747 46.1367 84.2105C46.1367 105.674 63.5363 123.074 84.9999 123.074Z" fill="#E5CCB3"/>
<path d="M84.9999 45.3474C106.468 45.3474 123.863 62.7427 123.863 84.2105C123.863 85.7697 123.771 87.3074 123.593 88.8185M52.8365 49.9452H66.6521C54.4348 56.4918 46.1367 69.3878 46.1367 84.2105C46.1367 105.678 63.5321 123.074 84.9999 123.074C87.4324 123.074 89.8127 122.85 92.1213 122.423" stroke="black" stroke-width="3" stroke-linecap="round" stroke-linejoin="round"/>
<path d="M85.0003 51.3684V56.8421M85.0003 111.579V117.053M117.842 84.2105H112.369M57.6319 84.2105H52.1582M108.22 60.9911L105.899 63.312M64.1018 105.109L61.7809 107.43M108.22 107.43L105.899 105.109M64.1018 63.312L61.7809 60.9911" stroke="#84240C" stroke-width="2" stroke-linecap="round" stroke-linejoin="round"/>
<path d="M93.4842 62.3049L85 86.3344L73.6914 97.632" stroke="black" stroke-width="4" stroke-linecap="round" stroke-linejoin="round"/>
<path d="M66.6523 49.9453V62.7099" stroke="black" stroke-width="3" stroke-linecap="round" stroke-linejoin="round"/>
<path d="M85.0002 89.1587C86.5601 89.1587 87.8246 87.8942 87.8246 86.3343C87.8246 84.7744 86.5601 83.5099 85.0002 83.5099C83.4403 83.5099 82.1758 84.7744 82.1758 86.3343C82.1758 87.8942 83.4403 89.1587 85.0002 89.1587Z" fill="#84240C" stroke="#84240C" stroke-width="4" stroke-linecap="round" stroke-linejoin="round"/>
<path d="M124.566 98.1232C127.505 101.679 129.562 106.601 128.865 111.542C127.557 120.817 119.037 127.265 109.834 125.948C106.327 125.445 103.226 123.887 100.805 121.636" fill="black"/>
<path d="M124.566 98.1232C127.505 101.679 129.562 106.601 128.865 111.542C127.557 120.817 119.037 127.265 109.834 125.948C106.327 125.445 103.226 123.887 100.805 121.636" stroke="black" stroke-width="3" stroke-linecap="round" stroke-linejoin="round"/>
<path d="M111.348 125.523C120.616 125.523 128.13 117.922 128.13 108.547C128.13 99.1715 120.616 91.5712 111.348 91.5712C102.08 91.5712 94.5664 99.1715 94.5664 108.547C94.5664 117.922 102.08 125.523 111.348 125.523Z" fill="#6A4C36" stroke="black" stroke-width="3" stroke-linecap="round" stroke-linejoin="round"/>
<path d="M117.169 110.171C116.933 109.62 116.585 109.154 116.129 108.77C115.673 108.386 115.162 108.061 114.597 107.791C114.087 107.548 113.572 107.33 113.049 107.137L113.461 104.285C113.755 104.371 114.049 104.473 114.345 104.597C115.01 104.874 115.669 105.258 116.319 105.744L118.03 102.877C117.372 102.347 116.59 101.906 115.682 101.56C115.11 101.342 114.529 101.166 113.932 101.032L114.258 98.7775L111.715 98.421L111.385 100.715C110.545 100.698 109.789 100.784 109.121 100.973C108.086 101.267 107.276 101.737 106.692 102.378C106.11 103.02 105.756 103.771 105.63 104.633C105.517 105.411 105.577 106.078 105.805 106.635C106.035 107.193 106.374 107.665 106.822 108.053C107.269 108.441 107.783 108.777 108.363 109.055C108.938 109.334 109.509 109.571 110.074 109.771L109.673 112.547C109.121 112.407 108.578 112.212 108.041 111.956C107.212 111.564 106.496 111.113 105.89 110.603L104.07 113.474C104.697 114.03 105.549 114.535 106.628 114.99C107.444 115.334 108.303 115.598 109.205 115.781L108.881 118.019L111.423 118.375L111.758 116.058C112.532 116.06 113.229 115.976 113.849 115.8C114.885 115.506 115.699 115.034 116.289 114.386C116.879 113.738 117.235 112.992 117.359 112.142C117.47 111.379 117.406 110.721 117.169 110.169V110.171Z" fill="#E5CCB3" stroke="#E5CCB3" stroke-linecap="round" stroke-linejoin="round"/>
<path d="M112.238 112.734C112.486 112.677 112.684 112.589 112.829 112.467C113.016 112.31 113.129 112.105 113.165 111.855C113.212 111.536 113.093 111.26 112.809 111.029C112.722 110.958 112.622 110.888 112.515 110.819L112.238 112.734Z" fill="#6A4C36"/>
<path d="M109.789 105.002C109.742 105.335 109.86 105.618 110.143 105.849C110.273 105.956 110.424 106.057 110.595 106.153L110.9 104.048C110.552 104.123 110.288 104.243 110.113 104.408C109.93 104.582 109.821 104.779 109.789 105.002Z" fill="#6A4C36"/>
</svg>
